<svg width="20" height="25" viewBox="0 0 20 25" fill="none" xmlns="http://www.w3.org/2000/svg">
<rect width="20" height="25" fill="#FEFAF3"/>
<rect width="1.81818" height="1.92308" fill="#140E28"/>
<rect x="1.81836" width="1.81818" height="1.92308" fill="#140E28"/>
<rect x="3.63623" width="1.81818" height="1.92308" fill="#140E28"/>
<rect x="5.45459" width="1.81818" height="1.92308" fill="#140E28"/>
<rect x="7.27295" width="1.81818" height="1.92308" fill="#140E28"/>
<rect x="9.09082" width="1.81818" height="1.92308" fill="#140E28"/>
<rect x="10.9092" width="1.81818" height="1.92308" fill="#140E28"/>
<rect x="12.7271" width="1.81818" height="1.92308" fill="#140E28"/>
<rect x="14.5454" width="1.81818" height="1.92308" fill="#140E28"/>
<rect x="16.3638" width="1.81818" height="1.92308" fill="#140E28"/>
<rect x="18.1816" width="1.81818" height="1.92308" fill="#140E28"/>
<rect y="1.92383" width="1.81818" height="1.92308" fill="#140E28"/>
<rect x="18.1816" y="1.92383" width="1.81818" height="1.92308" fill="#140E28"/>
<rect y="3.8457" width="1.81818" height="1.92308" fill="#140E28"/>
<rect x="18.1816" y="3.8457" width="1.81818" height="1.92308" fill="#140E28"/>
<rect x="1.81836" y="5.76953" width="1.81818" height="1.92308" fill="#140E28"/>
<rect x="16.3638" y="5.76953" width="1.81818" height="1.92308" fill="#140E28"/>
<rect x="3.63623" y="7.69141" width="1.81818" height="1.92308" fill="#140E28"/>
<rect x="14.5454" y="7.69141" width="1.81818" height="1.92308" fill="#140E28"/>
<rect x="5.45459" y="9.61523" width="1.81818" height="1.92308" fill="#140E28"/>
<rect x="12.7271" y="9.61523" width="1.81818" height="1.92308" fill="#140E28"/>
<rect x="7.27295" y="11.5391" width="1.81818" height="1.92308" fill="#140E28"/>
<rect x="10.9092" y="11.5391" width="1.81818" height="1.92308" fill="#140E28"/>
<rect x="7.27295" y="13.4609" width="1.81818" height="1.92308" fill="#140E28"/>
<rect x="10.9092" y="13.4609" width="1.81818" height="1.92308" fill="#140E28"/>
<rect x="7.27295" y="15.3848" width="1.81818" height="1.92308" fill="#140E28"/>
<rect x="10.9092" y="15.3848" width="1.81818" height="1.92308" fill="#140E28"/>
<rect x="7.27295" y="17.3086" width="1.81818" height="1.92308" fill="#140E28"/>
<rect x="10.9092" y="17.3086" width="1.81818" height="1.92308" fill="#140E28"/>
<rect x="7.27295" y="19.2305" width="1.81818" height="1.92308" fill="#140E28"/>
<rect x="10.9092" y="19.2305" width="1.81818" height="1.92308" fill="#140E28"/>
<rect x="9.09082" y="21.1543" width="1.81818" height="1.92308" fill="#140E28"/>
<rect x="10.9092" y="21.1543" width="1.81818" height="1.92308" fill="#140E28"/>
<rect x="10.9092" y="23.0762" width="1.81818" height="1.92308" fill="#140E28"/>
</svg>
