<svg width="32" height="32" viewBox="0 0 32 32" fill="none" xmlns="http://www.w3.org/2000/svg">
<path d="M16.1882 31C24.4725 31 31.1882 24.2843 31.1882 16C31.1882 7.71573 24.4725 1 16.1882 1C7.90396 1 1.18823 7.71573 1.18823 16C1.18823 24.2843 7.90396 31 16.1882 31Z" fill="#242C53" stroke="#FCF4E7" stroke-linecap="round" stroke-linejoin="round"/>
<path d="M12.5505 12.1833C12.8444 11.3479 13.4245 10.6435 14.188 10.1947C14.9515 9.74603 15.8492 9.582 16.722 9.73172C17.5949 9.88144 18.3866 10.3352 18.9569 11.0127C19.5272 11.6902 19.8394 12.5477 19.838 13.4333C19.838 15.9333 16.088 17.1833 16.088 17.1833" stroke="#FCF4E7" stroke-width="2" stroke-linecap="square" stroke-linejoin="round"/>
<path d="M16.1873 22.1836H16.2014" stroke="#FCF4E7" stroke-width="2" stroke-linecap="round" stroke-linejoin="round"/>
</svg>
