<svg width="32" height="32" viewBox="0 0 32 32" fill="none" xmlns="http://www.w3.org/2000/svg">
<path d="M16 31C24.2843 31 31 24.2843 31 16C31 7.71573 24.2843 1 16 1C7.71573 1 1 7.71573 1 16C1 24.2843 7.71573 31 16 31Z" fill="#242C53" stroke="#FCF4E7" stroke-linecap="round" stroke-linejoin="round"/>
<path d="M14.9 8.2998H13.8V9.3998H14.9V8.2998Z" fill="#FCF4E7"/>
<path d="M16.0001 8.2998H14.9001V9.3998H16.0001V8.2998Z" fill="#FCF4E7"/>
<path d="M17.1 8.2998H16V9.3998H17.1V8.2998Z" fill="#FCF4E7"/>
<path d="M18.2001 8.2998H17.1001V9.3998H18.2001V8.2998Z" fill="#FCF4E7"/>
<path d="M19.3 8.2998H18.2V9.3998H19.3V8.2998Z" fill="#FCF4E7"/>
<path d="M12.7001 9.40039H11.6001V10.5004H12.7001V9.40039Z" fill="#FCF4E7"/>
<path d="M13.8 9.40039H12.7V10.5004H13.8V9.40039Z" fill="#FCF4E7"/>
<path d="M14.9 9.40039H13.8V10.5004H14.9V9.40039Z" fill="#FCF4E7"/>
<path d="M16.0001 9.40039H14.9001V10.5004H16.0001V9.40039Z" fill="#FCF4E7"/>
<path d="M17.1 9.40039H16V10.5004H17.1V9.40039Z" fill="#FCF4E7"/>
<path d="M18.2001 9.40039H17.1001V10.5004H18.2001V9.40039Z" fill="#FCF4E7"/>
<path d="M19.3 9.40039H18.2V10.5004H19.3V9.40039Z" fill="#FCF4E7"/>
<path d="M20.4 9.40039H19.3V10.5004H20.4V9.40039Z" fill="#FCF4E7"/>
<path d="M12.7001 10.5H11.6001V11.6H12.7001V10.5Z" fill="#FCF4E7"/>
<path d="M13.8 10.5H12.7V11.6H13.8V10.5Z" fill="#FCF4E7"/>
<path d="M19.3 10.5H18.2V11.6H19.3V10.5Z" fill="#FCF4E7"/>
<path d="M20.4 10.5H19.3V11.6H20.4V10.5Z" fill="#FCF4E7"/>
<path d="M21.5001 10.5H20.4001V11.6H21.5001V10.5Z" fill="#FCF4E7"/>
<path d="M11.6 11.5996H10.5V12.6996H11.6V11.5996Z" fill="#FCF4E7"/>
<path d="M12.7001 11.5996H11.6001V12.6996H12.7001V11.5996Z" fill="#FCF4E7"/>
<path d="M20.4 11.5996H19.3V12.6996H20.4V11.5996Z" fill="#FCF4E7"/>
<path d="M21.5001 11.5996H20.4001V12.6996H21.5001V11.5996Z" fill="#FCF4E7"/>
<path d="M11.6 12.7002H10.5V13.8002H11.6V12.7002Z" fill="#FCF4E7"/>
<path d="M12.7001 12.7002H11.6001V13.8002H12.7001V12.7002Z" fill="#FCF4E7"/>
<path d="M20.4 12.7002H19.3V13.8002H20.4V12.7002Z" fill="#FCF4E7"/>
<path d="M21.5001 12.7002H20.4001V13.8002H21.5001V12.7002Z" fill="#FCF4E7"/>
<path d="M19.3 13.7998H18.2V14.8998H19.3V13.7998Z" fill="#FCF4E7"/>
<path d="M20.4 13.7998H19.3V14.8998H20.4V13.7998Z" fill="#FCF4E7"/>
<path d="M21.5001 13.7998H20.4001V14.8998H21.5001V13.7998Z" fill="#FCF4E7"/>
<path d="M18.2001 14.9004H17.1001V16.0004H18.2001V14.9004Z" fill="#FCF4E7"/>
<path d="M19.3 14.9004H18.2V16.0004H19.3V14.9004Z" fill="#FCF4E7"/>
<path d="M20.4 14.9004H19.3V16.0004H20.4V14.9004Z" fill="#FCF4E7"/>
<path d="M16.0001 16H14.9001V17.1H16.0001V16Z" fill="#FCF4E7"/>
<path d="M17.1 16H16V17.1H17.1V16Z" fill="#FCF4E7"/>
<path d="M18.2001 16H17.1001V17.1H18.2001V16Z" fill="#FCF4E7"/>
<path d="M19.3 16H18.2V17.1H19.3V16Z" fill="#FCF4E7"/>
<path d="M16.0001 17.0996H14.9001V18.1996H16.0001V17.0996Z" fill="#FCF4E7"/>
<path d="M17.1 17.0996H16V18.1996H17.1V17.0996Z" fill="#FCF4E7"/>
<path d="M16.0001 18.2002H14.9001V19.3002H16.0001V18.2002Z" fill="#FCF4E7"/>
<path d="M17.1 18.2002H16V19.3002H17.1V18.2002Z" fill="#FCF4E7"/>
<path d="M16.0001 21.5H14.9001V22.6H16.0001V21.5Z" fill="#FCF4E7"/>
<path d="M17.1 21.5H16V22.6H17.1V21.5Z" fill="#FCF4E7"/>
<path d="M16.0001 22.5996H14.9001V23.6996H16.0001V22.5996Z" fill="#FCF4E7"/>
<path d="M17.1 22.5996H16V23.6996H17.1V22.5996Z" fill="#FCF4E7"/>
</svg>
