<svg width="30" height="30" viewBox="0 0 30 30" fill="none" xmlns="http://www.w3.org/2000/svg">
<rect x="0.5" y="0.5" width="29" height="29" rx="14.5" fill="#242C53"/>
<rect x="0.5" y="0.5" width="29" height="29" rx="14.5" stroke="#FCF4E7"/>
<path d="M14 9H13V10H14V9Z" fill="#FCF4E7"/>
<path d="M15 9H14V10H15V9Z" fill="#FCF4E7"/>
<path d="M16 9H15V10H16V9Z" fill="#FCF4E7"/>
<path d="M17 9H16V10H17V9Z" fill="#FCF4E7"/>
<path d="M13 10H12V11H13V10Z" fill="#FCF4E7"/>
<path d="M14 10H13V11H14V10Z" fill="#FCF4E7"/>
<path d="M17 10H16V11H17V10Z" fill="#FCF4E7"/>
<path d="M21 10H20V11H21V10Z" fill="#FCF4E7"/>
<path d="M12 11H11V12H12V11Z" fill="#FCF4E7"/>
<path d="M13 11H12V12H13V11Z" fill="#FCF4E7"/>
<path d="M17 11H16V12H17V11Z" fill="#FCF4E7"/>
<path d="M22 11H21V12H22V11Z" fill="#FCF4E7"/>
<path d="M7 12H6V13H7V12Z" fill="#FCF4E7"/>
<path d="M8 12H7V13H8V12Z" fill="#FCF4E7"/>
<path d="M9 12H8V13H9V12Z" fill="#FCF4E7"/>
<path d="M10 12H9V13H10V12Z" fill="#FCF4E7"/>
<path d="M11 12H10V13H11V12Z" fill="#FCF4E7"/>
<path d="M12 12H11V13H12V12Z" fill="#FCF4E7"/>
<path d="M17 12H16V13H17V12Z" fill="#FCF4E7"/>
<path d="M19 12H18V13H19V12Z" fill="#FCF4E7"/>
<path d="M23 12H22V13H23V12Z" fill="#FCF4E7"/>
<path d="M7 13H6V14H7V13Z" fill="#FCF4E7"/>
<path d="M17 13H16V14H17V13Z" fill="#FCF4E7"/>
<path d="M20 13H19V14H20V13Z" fill="#FCF4E7"/>
<path d="M24 13H23V14H24V13Z" fill="#FCF4E7"/>
<path d="M7 14H6V15H7V14Z" fill="#FCF4E7"/>
<path d="M17 14H16V15H17V14Z" fill="#FCF4E7"/>
<path d="M21 14H20V15H21V14Z" fill="#FCF4E7"/>
<path d="M24 14H23V15H24V14Z" fill="#FCF4E7"/>
<path d="M7 15H6V16H7V15Z" fill="#FCF4E7"/>
<path d="M17 15H16V16H17V15Z" fill="#FCF4E7"/>
<path d="M21 15H20V16H21V15Z" fill="#FCF4E7"/>
<path d="M24 15H23V16H24V15Z" fill="#FCF4E7"/>
<path d="M7 16H6V17H7V16Z" fill="#FCF4E7"/>
<path d="M17 16H16V17H17V16Z" fill="#FCF4E7"/>
<path d="M20 16H19V17H20V16Z" fill="#FCF4E7"/>
<path d="M24 16H23V17H24V16Z" fill="#FCF4E7"/>
<path d="M7 17H6V18H7V17Z" fill="#FCF4E7"/>
<path d="M8 17H7V18H8V17Z" fill="#FCF4E7"/>
<path d="M9 17H8V18H9V17Z" fill="#FCF4E7"/>
<path d="M10 17H9V18H10V17Z" fill="#FCF4E7"/>
<path d="M11 17H10V18H11V17Z" fill="#FCF4E7"/>
<path d="M12 17H11V18H12V17Z" fill="#FCF4E7"/>
<path d="M17 17H16V18H17V17Z" fill="#FCF4E7"/>
<path d="M19 17H18V18H19V17Z" fill="#FCF4E7"/>
<path d="M23 17H22V18H23V17Z" fill="#FCF4E7"/>
<path d="M12 18H11V19H12V18Z" fill="#FCF4E7"/>
<path d="M13 18H12V19H13V18Z" fill="#FCF4E7"/>
<path d="M17 18H16V19H17V18Z" fill="#FCF4E7"/>
<path d="M22 18H21V19H22V18Z" fill="#FCF4E7"/>
<path d="M13 19H12V20H13V19Z" fill="#FCF4E7"/>
<path d="M14 19H13V20H14V19Z" fill="#FCF4E7"/>
<path d="M17 19H16V20H17V19Z" fill="#FCF4E7"/>
<path d="M21 19H20V20H21V19Z" fill="#FCF4E7"/>
<path d="M14 20H13V21H14V20Z" fill="#FCF4E7"/>
<path d="M15 20H14V21H15V20Z" fill="#FCF4E7"/>
<path d="M16 20H15V21H16V20Z" fill="#FCF4E7"/>
<path d="M17 20H16V21H17V20Z" fill="#FCF4E7"/>
</svg>
