<svg width="15" height="15" viewBox="0 0 15 15" fill="none" xmlns="http://www.w3.org/2000/svg">
<rect width="15" height="15" rx="7.5" fill="#4DA2FF"/>
<path fill-rule="evenodd" clip-rule="evenodd" d="M10.3049 6.51129C10.7904 7.11892 11.083 7.89086 11.083 8.72791C11.083 9.56496 10.7842 10.3586 10.2831 10.9724L10.2395 11.0251L10.2271 10.9569C10.2177 10.9011 10.2053 10.8422 10.1928 10.7833C9.94385 9.68897 9.1284 8.74961 7.78385 7.98697C6.87814 7.47544 6.35837 6.85851 6.22143 6.15787C6.13428 5.70524 6.19964 5.24952 6.32414 4.8589C6.45174 4.46828 6.63849 4.14276 6.79722 3.94745L7.3201 3.31191C7.41036 3.20031 7.58465 3.20031 7.67491 3.31191L10.3049 6.51129ZM11.1297 5.87575L7.63134 1.61612C7.56598 1.53551 7.43837 1.53551 7.37301 1.61612L3.87157 5.87575L3.85912 5.89125C3.21797 6.688 2.83203 7.69865 2.83203 8.79922C2.83203 11.3631 4.92356 13.4433 7.50062 13.4433C10.0777 13.4433 12.1692 11.3631 12.1692 8.79922C12.1692 7.69865 11.7833 6.688 11.139 5.89125L11.1297 5.87575ZM4.7088 6.49889L5.02004 6.11757L5.02938 6.18887C5.0356 6.24467 5.04494 6.30048 5.05739 6.35628C5.2597 7.41344 5.98488 8.29699 7.19249 8.97903C8.24448 9.57426 8.85451 10.2594 9.03192 11.0127C9.10661 11.3259 9.11906 11.6359 9.08794 11.9056L9.08483 11.9211L9.06926 11.9273C8.59618 12.1567 8.06085 12.2869 7.49751 12.2869C5.52114 12.2869 3.91826 10.6934 3.91826 8.72791C3.91826 7.88466 4.21393 7.10652 4.7088 6.49889Z" fill="#FFFBF4"/>
</svg>
