<svg width="21" height="20" viewBox="0 0 21 20" fill="none" xmlns="http://www.w3.org/2000/svg">
<path d="M11.9258 2.86133H9.06445V0H11.9258V2.86133ZM9.06445 5.72266H7.63867V2.86133H9.06445V5.72266ZM13.3516 5.72266H11.9258V2.86133H13.3516V5.72266ZM7.63867 8.57422H6.21289V5.72266H7.63867V8.57422ZM14.7773 8.57422H13.3516V5.72266H14.7773V8.57422ZM11.2129 13.5742H9.77734V7.14844H11.2129V13.5742ZM6.21289 11.4355H4.77734V8.57422H6.21289V11.4355ZM16.2129 11.4355H14.7773V8.57422H16.2129V11.4355ZM4.77734 14.2871H3.35156V11.4355H4.77734V14.2871ZM17.6387 14.2871H16.2129V11.4355H17.6387V14.2871ZM3.35156 17.1484H1.92578V14.2871H3.35156V17.1484ZM19.0645 17.1484H17.6387V14.2871H19.0645V17.1484ZM11.2129 17.1484H9.77734V15H11.2129V17.1484ZM20.5 20H0.5V17.1484H1.92578V18.5742H19.0645V17.1484H20.5V20Z" fill="#FBBB26"/>
</svg>
